<?xml version="1.0" encoding="UTF-8" standalone="no"?><!DOCTYPE svg PUBLIC "-//W3C//DTD SVG 1.1//EN" "http://www.w3.org/Graphics/SVG/1.1/DTD/svg11.dtd"><svg width="100%" height="100%" viewBox="0 0 256 256" version="1.1" xmlns="http://www.w3.org/2000/svg" xmlns:xlink="http://www.w3.org/1999/xlink" xml:space="preserve" xmlns:serif="http://www.serif.com/" style="fill-rule:evenodd;clip-rule:evenodd;stroke-linejoin:round;stroke-miterlimit:2;"><g><path d="M41.895,101.036c8.808,-28.119 31.022,-50.333 59.142,-59.142l-59.142,59.142Z" style="fill:url(#_Linear1);"/><path d="M122.72,37.942c1.747,-0.101 3.508,-0.152 5.28,-0.152c3.107,0 6.177,0.157 9.204,0.465l-98.95,98.95c-0.307,-3.026 -0.465,-6.097 -0.465,-9.204c-0,-1.772 0.051,-3.533 0.152,-5.28l84.778,-84.778Z" style="fill:url(#_Linear2);"/><path d="M152.13,41.058c3.761,1.043 7.424,2.324 10.971,3.825l-118.218,118.218c-1.501,-3.547 -2.782,-7.21 -3.825,-10.971l111.072,-111.072Z" style="fill:url(#_Linear3);"/><path d="M174.822,50.893c3.036,1.849 5.954,3.872 8.741,6.055l-126.615,126.615c-2.183,-2.787 -4.206,-5.705 -6.055,-8.741l123.929,-123.929Z" style="fill:url(#_Linear4);"/><path d="M192.887,65.355c15.675,16.232 25.323,38.321 25.323,62.645c0,49.789 -40.422,90.211 -90.211,90.211c-24.325,0 -46.413,-9.648 -62.645,-25.323l127.533,-127.533Z" style="fill:url(#_Linear5);"/></g><defs><linearGradient id="_Linear1" x1="0" y1="0" x2="1" y2="0" gradientUnits="userSpaceOnUse" gradientTransform="matrix(137.694543,115.929857,-115.929857,137.694543,63.128047,65.313427)"><stop offset="0" style="stop-color:#fff;stop-opacity:1"/><stop offset="1" style="stop-color:#4d4d4d;stop-opacity:1"/></linearGradient><linearGradient id="_Linear2" x1="0" y1="0" x2="1" y2="0" gradientUnits="userSpaceOnUse" gradientTransform="matrix(137.694543,115.929857,-115.929857,137.694543,63.128047,65.313427)"><stop offset="0" style="stop-color:#fff;stop-opacity:1"/><stop offset="1" style="stop-color:#4d4d4d;stop-opacity:1"/></linearGradient><linearGradient id="_Linear3" x1="0" y1="0" x2="1" y2="0" gradientUnits="userSpaceOnUse" gradientTransform="matrix(137.694543,115.929857,-115.929857,137.694543,63.128047,65.313427)"><stop offset="0" style="stop-color:#fff;stop-opacity:1"/><stop offset="1" style="stop-color:#4d4d4d;stop-opacity:1"/></linearGradient><linearGradient id="_Linear4" x1="0" y1="0" x2="1" y2="0" gradientUnits="userSpaceOnUse" gradientTransform="matrix(137.694543,115.929857,-115.929857,137.694543,63.128047,65.313427)"><stop offset="0" style="stop-color:#fff;stop-opacity:1"/><stop offset="1" style="stop-color:#4d4d4d;stop-opacity:1"/></linearGradient><linearGradient id="_Linear5" x1="0" y1="0" x2="1" y2="0" gradientUnits="userSpaceOnUse" gradientTransform="matrix(137.694543,115.929857,-115.929857,137.694543,63.128047,65.313427)"><stop offset="0" style="stop-color:#fff;stop-opacity:1"/><stop offset="1" style="stop-color:#4d4d4d;stop-opacity:1"/></linearGradient></defs></svg>